# xmcd
#
# Track frame offsets:
#	150
#	19888
#	41532
#	57428
#	78614
#	96861
#	115233
#	132254
#	153372
#	176523
#	198457
#	225202
#	250195
#
# Disc length: 3571 seconds
#
# Revision: 1
# Processed by: cddbd v1.4PL0 Copyright (c) Steve Scherf et al.
# Submitted via: audiograbber 1.82.01
#
DISCID=a40df10d
DTITLE=Turkiye PopStar - PopStar
DYEAR=2003
DGENRE=Pop
TTITLE0=Firdevs Gunes - Kiyamam
TTITLE1=Abidin Ozsahin - Copculer
TTITLE2=Elena Kryuchkova - Neler Oluyor Bize
TTITLE3=Baris Komurcuoglu - Bu Gece Son
TTITLE4=Muge Okten - Ellerimde Cicekler
TTITLE5=Bayhan Gurhan - Seninle Olmak Var Ya
TTITLE6=Ceyda Mazalto - Aldirma
TTITLE7=Aydan Kaya - Avuclarim Kayniyor
TTITLE8=Eser Bayar - Bebegim
TTITLE9=Evren Mevlanaoglu - Alisamadim
TTITLE10=Serkul Kan - Kar Beyazdir Olum
TTITLE11=Selcuk Yapar - Bir Garip Yolcuyum
TTITLE12=Alpay Kulay - Gel Barisalim Artik
EXTD=
EXTT0=
EXTT1=
EXTT2=
EXTT3=
EXTT4=
EXTT5=
EXTT6=
EXTT7=
EXTT8=
EXTT9=
EXTT10=
EXTT11=
EXTT12=
PLAYORDER=
